<svg xmlns="http://www.w3.org/2000/svg" viewBox="0 0 745 808"><path d="M 224 73 L 218 83 L 200 87 L 152 135 L 124 206 L 124 258 L 81 278 L 71 292 L 76 319 L 100 343 L 138 358 L 170 353 L 181 363 L 181 372 L 133 416 L 95 478 L 86 524 L 81 525 L 95 614 L 176 695 L 238 724 L 286 738 L 313 738 L 314 743 L 432 743 L 433 738 L 484 734 L 546 715 L 585 695 L 651 638 L 685 567 L 685 473 L 680 472 L 680 449 L 666 424 L 666 411 L 637 377 L 637 368 L 570 306 L 562 306 L 552 329 L 518 354 L 489 363 L 447 362 L 466 343 L 489 301 L 494 268 L 499 267 L 499 206 L 494 205 L 494 187 L 480 149 L 442 102 L 389 68 L 362 64 L 361 59 L 333 59 L 332 54 L 291 54 Z M 219 101 L 262 82 L 280 82 L 281 77 L 342 77 L 343 82 L 375 87 L 409 110 L 418 110 L 457 154 L 471 201 L 476 202 L 471 286 L 438 343 L 385 381 L 480 386 L 481 381 L 518 377 L 547 362 L 562 343 L 579 343 L 633 402 L 661 468 L 661 500 L 666 501 L 661 567 L 638 619 L 589 668 L 571 673 L 546 692 L 519 696 L 489 711 L 443 715 L 442 720 L 400 720 L 399 725 L 348 725 L 346 720 L 305 720 L 285 711 L 262 711 L 237 696 L 215 692 L 167 663 L 123 614 L 109 581 L 109 563 L 104 562 L 104 530 L 109 529 L 114 492 L 147 435 L 214 371 L 214 364 L 185 335 L 115 325 L 99 310 L 99 297 L 142 272 L 147 206 L 152 205 L 161 164 L 180 144 L 180 135 Z" fill="#f5c518" fill-rule="evenodd"/></svg>